<svg xmlns="http://www.w3.org/2000/svg" viewBox="0 0 100 125" x="0px" y="0px" fill="#173248"><title>Artboard 63</title><path d="M49.69,35.11,37.69,39A1,1,0,0,0,37,40V45.6a18.91,18.91,0,0,0,7.27,14.62l5.21,3.53a1.14,1.14,0,0,0,.64.19,1.13,1.13,0,0,0,.65-.2l5.13-3.57A18.83,18.83,0,0,0,63,45.6V40a1,1,0,0,0-.69-1l-12-3.91A1,1,0,0,0,49.69,35.11ZM61,45.6a16.79,16.79,0,0,1-6.3,13l-4.59,3.19-4.66-3.15A16.87,16.87,0,0,1,39,45.6V40.7l11-3.59L61,40.7Z"/><polygon points="46.41 47.43 44.63 49.22 49.45 54.05 56.76 46.74 54.97 44.95 49.45 50.47 46.41 47.43"/><path d="M14,36.47V48.09C14,50.73,15.74,53,18.32,53H22a1,1,0,0,0,0-2H18.32C16.83,51,16,49.64,16,48.09V37h9v6.5a1,1,0,0,0,2,0V37h4.68c2.82,0,5.12-3,5.29-5H48.47C51.05,32,53,29.48,53,26.79V23.5a1,1,0,0,0-2,0v3.29C51,28.36,49.94,30,48.47,30H37V21h7a1,1,0,0,0,0-2H37V13.82C37,10.89,34.61,9,31.68,9H14.32C11.39,9,9,10.89,9,13.82V31.18A5.31,5.31,0,0,0,14,36.47Zm21-4.79A3.32,3.32,0,0,1,31.68,35H14.32A3.32,3.32,0,0,1,11,31.68V14.32A3.32,3.32,0,0,1,14.32,11H31.68A3.32,3.32,0,0,1,35,14.32Z"/><path d="M85.68,9H68.32A5.16,5.16,0,0,0,63,14H51.5c-2.69,0-4.5,1.24-4.5,3.83V21.5a1,1,0,0,0,2,0V17.83c0-1.46.94-1.83,2.5-1.83H63v9H56a1,1,0,0,0,0,2h7v4.18a5.31,5.31,0,0,0,5,5.29s0,0,0,0V48.2A4.72,4.72,0,0,0,72.7,53H76a1,1,0,0,0,0-2H72.7A2.81,2.81,0,0,1,70,48.2V37h9v6.5a1,1,0,0,0,2,0V37h4.68C88.61,37,91,34.11,91,31.18V13.82C91,10.89,88.61,9,85.68,9ZM89,31.68A3.32,3.32,0,0,1,85.68,35H68.32A3.32,3.32,0,0,1,65,31.68V14.32A3.32,3.32,0,0,1,68.32,11H85.68A3.32,3.32,0,0,1,89,14.32Z"/><path d="M86,63.53s0,0,0,0V51.23A4,4,0,0,0,81.66,47H78a1,1,0,0,0,0,2h3.66A2.05,2.05,0,0,1,84,51.23V64H75V55.5a1,1,0,0,0-2,0V64H68.32c-2.48,0-4.54,1-5.14,4H51.5A4.25,4.25,0,0,0,47,72.42V75.5a1,1,0,0,0,2,0V72.42A2.3,2.3,0,0,1,51.5,70H63v9H56a1,1,0,0,0,0,2h7v5.18C63,89.11,65.39,92,68.32,92H85.68C88.61,92,91,89.11,91,86.18V68.82A5.31,5.31,0,0,0,86,63.53Zm3,23.15A3.32,3.32,0,0,1,85.68,90H68.32A3.32,3.32,0,0,1,65,86.68V69.32A3.32,3.32,0,0,1,68.32,66H85.68A3.32,3.32,0,0,1,89,69.32Z"/><path d="M52,76.5a1,1,0,0,0-1,1v3.88C51,82.89,50,85,48.47,85H37V76h7a1,1,0,0,0,0-2H37V68.82a5.31,5.31,0,0,0-5-5.29s0,0,0,0V51.12C32,48.53,29.93,47,27.28,47H24a1,1,0,0,0,0,2h3.28c1.55,0,2.72.63,2.72,2.12V64H21V55.5a1,1,0,0,0-2,0V64H14.32C11.39,64,9,65.89,9,68.82V86.18C9,89.11,11.39,92,14.32,92H31.68c2.82,0,5.12-3,5.29-5H48.47c2.8,0,4.53-3.16,4.53-5.62V77.5A1,1,0,0,0,52,76.5ZM35,86.68A3.32,3.32,0,0,1,31.68,90H14.32A3.32,3.32,0,0,1,11,86.68V69.32A3.32,3.32,0,0,1,14.32,66H31.68A3.32,3.32,0,0,1,35,69.32Z"/><path d="M79.93,76.2a0,0,0,0,1,0-.05,3.61,3.61,0,0,0-1.73-5.85,0,0,0,0,1,0,0V68.68a.73.73,0,0,0-1.47,0v1.47H76V68.68a.73.73,0,1,0-1.47,0v1.43a0,0,0,0,1,0,0h-1.8a.73.73,0,1,0,0,1.47H73V83.35h-.37a.73.73,0,1,0,0,1.47h1.8a0,0,0,0,1,0,0V87A.73.73,0,0,0,76,87v-2.2h.73V87a.73.73,0,0,0,1.47,0V84.85a0,0,0,0,1,0,0h.11a4.56,4.56,0,0,0,4.6-4A4.43,4.43,0,0,0,79.93,76.2Zm-2.76-4.58a2.2,2.2,0,0,1,2.14,2.64A2.29,2.29,0,0,1,77,76H74.53a0,0,0,0,1,0,0V71.62h2.67Zm1.22,11.73H74.53a0,0,0,0,1,0,0v-5.8a0,0,0,0,1,0,0h4a2.94,2.94,0,0,1,3,3.14A3,3,0,0,1,78.38,83.35Z"/><path d="M79.93,22.22a0,0,0,0,1,0-.05,3.61,3.61,0,0,0-1.73-5.85,0,0,0,0,1,0,0V14.7a.73.73,0,0,0-1.47,0v1.47H76V14.7a.73.73,0,1,0-1.47,0v1.43a0,0,0,0,1,0,0h-1.8a.73.73,0,0,0,0,1.47H73V29.37h-.37a.73.73,0,1,0,0,1.47h1.8a0,0,0,0,1,0,0V33A.73.73,0,1,0,76,33v-2.2h.73V33a.73.73,0,0,0,1.47,0V30.87a0,0,0,0,1,0,0h.11a4.56,4.56,0,0,0,4.6-4A4.43,4.43,0,0,0,79.93,22.22Zm-2.76-4.58a2.2,2.2,0,0,1,2.14,2.64A2.29,2.29,0,0,1,77,22H74.53a0,0,0,0,1,0,0V17.63h2.67Zm1.22,11.73H74.53a0,0,0,0,1,0,0v-5.8a0,0,0,0,1,0,0h4a2.94,2.94,0,0,1,3,3.14A3,3,0,0,1,78.38,29.37Z"/><path d="M25.5,21.35a0,0,0,0,1,0-.05,3.61,3.61,0,0,0-1.73-5.85,0,0,0,0,1,0,0V13.83a.73.73,0,1,0-1.47,0V15.3h-.73V13.83a.73.73,0,1,0-1.47,0v1.43a0,0,0,0,1,0,0h-1.8a.73.73,0,1,0,0,1.47h.37V28.5h-.37a.73.73,0,1,0,0,1.47H20a0,0,0,0,1,0,0v2.17a.73.73,0,0,0,1.47,0V30h.73v2.2a.73.73,0,1,0,1.47,0V30a0,0,0,0,1,0,0h.11a4.56,4.56,0,0,0,4.6-4A4.43,4.43,0,0,0,25.5,21.35Zm-2.76-4.58a2.2,2.2,0,0,1,2.14,2.64,2.29,2.29,0,0,1-2.29,1.76H20.1a0,0,0,0,1,0,0V16.77h2.67ZM24,28.5H20.1a0,0,0,0,1,0,0v-5.8a0,0,0,0,1,0,0h4a2.94,2.94,0,0,1,3,3.14A3,3,0,0,1,24,28.5Z"/><path d="M26,76.2a0,0,0,0,1,0-.05,3.61,3.61,0,0,0-1.73-5.85,0,0,0,0,1,0,0V68.68a.73.73,0,1,0-1.47,0v1.47h-.73V68.68a.73.73,0,1,0-1.47,0v1.43a0,0,0,0,1,0,0h-1.8a.73.73,0,1,0,0,1.47h.37V83.35h-.37a.73.73,0,1,0,0,1.47h1.8a0,0,0,0,1,0,0V87a.73.73,0,0,0,1.47,0v-2.2h.73V87a.73.73,0,0,0,1.47,0V84.85a0,0,0,0,1,0,0h.11a4.56,4.56,0,0,0,4.6-4A4.43,4.43,0,0,0,26,76.2Zm-2.76-4.58a2.2,2.2,0,0,1,2.14,2.64A2.29,2.29,0,0,1,23.14,76H20.65a0,0,0,0,1,0,0V71.62h2.67ZM24.5,83.35H20.65a0,0,0,0,1,0,0v-5.8a0,0,0,0,1,0,0h4a2.94,2.94,0,0,1,3,3.14A3,3,0,0,1,24.5,83.35Z"/></svg>