<svg xmlns="http://www.w3.org/2000/svg" xmlns:xlink="http://www.w3.org/1999/xlink" version="1.1" x="0px" y="0px" viewBox="0 0 397.574 261.8475" style="enable-background:new 0 0 397.574 209.478;" xml:space="preserve" fill="#173248"><g><path d="M385.574,90.478h-16.5c-6.627,0-12,5.372-12,12v81.5H40.5v-81.5c0-6.628-5.373-12-12-12H12c-6.627,0-12,5.372-12,12v107   h40.5v-7h316.574v7h40.5v-107C397.574,95.85,392.201,90.478,385.574,90.478z"/><path d="M45.066,167.644c0,6.628,5.373,12,12,12h283.441c6.627,0,12-5.372,12-12v-11.332c0-6.628-5.373-12-12-12H57.066   c-6.627,0-12,5.372-12,12V167.644z"/><ellipse transform="matrix(0.9495 -0.3139 0.3139 0.9495 -2.3493 30.4109)" cx="93.255" cy="22.5" rx="22.496" ry="22.494"/><path d="M65.958,78.152c4.704,20.765,10.298,32.734,24.08,50.349c7.628,8.353,14.885,8.881,21.2,6.805   c1.508-0.219,3.001-0.707,4.404-1.509l46.875-26.787l41.875,28.588c2.155,1.473,4.609,2.179,7.037,2.179   c3.991,0,7.913-1.907,10.335-5.452c3.894-5.702,2.426-13.479-3.276-17.371l-48.332-33c-3.951-2.698-9.098-2.904-13.251-0.53   l-40.337,23.05c-2.521-4.09-4.757-8.461-6.761-12.887c-7.356-1.118-14.6-3.508-21.335-7.08c-6.739-3.579-10.837-7.155-11.934-8.164   c-1.973-1.855-3.093-4.333-3.177-7.001c-0.082-2.671,0.88-5.213,2.71-7.159c1.877-2.005,4.535-3.154,7.286-3.154   c2.534,0,4.95,0.95,6.806,2.675l0.074,0.065l0.223,0.191c0.3,0.252,0.783,0.645,1.435,1.135c1.236,0.925,3.272,2.324,5.947,3.743   c0.855,0.454,1.808,0.924,2.843,1.389c-0.331-0.911-0.656-1.8-0.976-2.662c-2.737-9.989-12.148-18.2-20.542-15.568   C70.772,52.626,62.626,63.031,65.958,78.152z"/><path d="M123.766,92.425l1.521,2.592c0.56,0.956,1.787,1.276,2.743,0.716l11.09-6.509c-5.129,1.604-10.304,2.583-15.478,2.932   C123.679,92.246,123.715,92.338,123.766,92.425z"/><path d="M151.91,80.945c-0.146,0.369-0.317,0.723-0.502,1.067l23.296-13.672c0.954-0.56,1.274-1.788,0.713-2.744l-1.072-1.827   l11.999-49.604c0.259-1.076-0.401-2.16-1.477-2.42l-2.924-0.706c-1.074-0.261-2.159,0.401-2.416,1.476l-12.647,52.282   l-14.987,8.796C152.835,75.963,152.851,78.559,151.91,80.945z"/><path d="M90.697,64.695c-0.693-0.519-1.205-0.938-1.522-1.205c-0.157-0.132-0.265-0.229-0.323-0.279   c-0.029-0.027-0.044-0.042-0.048-0.044l-0.001,0c-3.222-2.995-8.262-2.828-11.274,0.384c-3.027,3.22-2.868,8.282,0.353,11.307   c0.375,0.346,4.419,4.104,11.529,7.881c7.096,3.764,17.354,7.574,29.911,7.579c0.016,0,0.031,0,0.047,0   c8.072,0,17.042-1.618,26.428-5.704c4.052-1.761,5.909-6.472,4.148-10.524c-1.76-4.052-6.473-5.91-10.524-4.15   c-7.432,3.223-14.111,4.373-20.099,4.377c-9.26,0.006-16.983-2.83-22.415-5.712C94.2,67.168,92.087,65.732,90.697,64.695z"/><path d="M61.444,107.978c-8.655,0-15.673,7.017-15.673,15.673v0.654c0,8.656,7.018,15.673,15.673,15.673h0.654   c8.655,0,15.673-7.017,15.673-15.673v-0.654c0-8.656-7.018-15.673-15.673-15.673H61.444z"/></g></svg>