<?xml version="1.0" encoding="UTF-8"?>
<svg width="579px" height="91px" viewBox="0 0 579 91" version="1.1" xmlns="http://www.w3.org/2000/svg" xmlns:xlink="http://www.w3.org/1999/xlink">
    <!-- Generator: Sketch 46 (44423) - http://www.bohemiancoding.com/sketch -->
    <title>Logo_HealthyWorkers_CMYK</title>
    <desc>Created with Sketch.</desc>
    <defs>
        <polygon id="path-1" points="0.06 90.94 578.132 90.94 578.132 0.738 0.06 0.738"></polygon>
    </defs>
    <g id="Page-1" stroke="none" stroke-width="1" fill="none" fill-rule="evenodd">
        <g id="Logo_HealthyWorkers_CMYK">
            <mask id="mask-2" fill="white">
                <use xlink:href="#path-1"></use>
            </mask>
            <g id="Clip-2"></g>
            <path d="M298.223,42.49 L297.434,48.197 L262.753,48.197 L261.965,42.49 L298.223,42.49 Z M268.074,57.563 C268.074,56.378 269.092,55.407 270.337,55.407 C271.581,55.407 272.6,56.378 272.6,57.563 L272.6,57.778 C272.6,58.964 271.581,59.934 270.337,59.934 C269.092,59.934 268.074,58.964 268.074,57.778 L268.074,57.563 Z M269.318,67.911 C270.224,67.048 271.581,67.048 272.486,67.911 C276.672,71.898 283.348,71.898 287.534,67.911 C288.439,67.048 289.796,67.048 290.701,67.911 C291.607,68.773 291.607,70.066 290.701,70.928 C287.76,73.731 283.913,75.132 280.066,75.132 C276.22,75.132 272.373,73.731 269.318,70.928 C268.414,70.066 268.414,68.773 269.318,67.911 Z M289.796,59.934 C288.552,59.934 287.534,58.964 287.534,57.778 L287.534,57.563 C287.534,56.378 288.552,55.407 289.796,55.407 C291.041,55.407 292.059,56.378 292.059,57.563 L292.059,57.778 C292.059,58.964 291.041,59.934 289.796,59.934 Z M277.099,20.563 C275.837,20.713 273.946,20.863 271.897,20.863 C267.956,20.863 264.803,19.962 262.439,18.31 C258.182,15.156 256.921,8.848 256.606,5.695 C257.867,5.544 259.601,5.244 261.65,5.244 C265.591,5.244 268.744,6.145 271.108,7.797 C275.523,10.951 276.783,17.409 277.099,20.563 Z M282.459,24.467 L279.778,12.003 C278.675,9.149 276.783,6.295 273.946,4.193 C270.793,1.94 266.694,0.738 261.65,0.738 C257.236,0.738 253.61,1.639 253.453,1.639 C252.507,1.94 251.719,2.841 251.719,3.742 C251.719,4.193 251.877,16.208 259.758,21.764 C262.911,24.017 267.01,25.218 272.054,25.218 C274.261,25.218 276.311,24.918 277.887,24.768 L277.887,37.984 L259.285,37.984 C258.655,37.984 258.024,38.285 257.551,38.735 C257.079,39.186 256.921,39.937 256.921,40.538 L263.542,89.047 C263.699,90.099 264.645,91.001 265.906,91.001 L294.44,91.001 C295.7,91.001 296.646,90.099 296.804,89.047 L303.425,40.538 C303.582,39.937 303.267,39.186 302.794,38.735 C302.321,38.285 301.69,37.984 300.902,37.984 L282.459,37.984 L282.459,24.467 Z M308.469,4.493 C308.469,3.442 307.839,2.541 306.893,2.24 C306.735,2.24 302.479,0.889 297.435,0.889 C293.021,0.889 289.395,1.79 286.399,3.742 C283.247,5.844 281.197,8.999 279.779,12.003 L282.459,24.467 C284.192,24.768 286.242,25.069 288.607,25.069 C293.021,25.069 296.647,24.167 299.642,22.215 C307.839,16.958 308.469,4.944 308.469,4.493 L308.469,4.493 Z" id="Fill-1" fill="#27B47B" mask="url(#mask-2)"></path>
            <path d="M225.268,38.206 C224.437,38.206 223.952,38.535 223.674,39.261 L215.916,58.201 L208.158,39.261 C207.881,38.535 207.396,38.206 206.565,38.206 L199.638,38.206 C198.599,38.206 198.114,38.799 198.53,39.723 L211.206,69.09 L211.206,89.68 C211.206,90.538 211.691,91.001 212.591,91.001 L219.241,91.001 C220.142,91.001 220.627,90.538 220.627,89.68 L220.627,69.09 L233.303,39.723 C233.718,38.799 233.233,38.206 232.194,38.206 L225.268,38.206 Z M184.351,60.247 L175.484,60.247 L175.484,39.261 C175.484,38.601 175.068,38.206 174.376,38.206 L167.241,38.206 C166.41,38.206 166.064,38.601 166.064,39.261 L166.064,89.944 C166.064,90.604 166.41,91.001 167.241,91.001 L174.376,91.001 C175.068,91.001 175.484,90.604 175.484,89.944 L175.484,68.958 L184.351,68.958 L184.351,89.944 C184.351,90.604 184.766,91.001 185.459,91.001 L192.593,91.001 C193.425,91.001 193.771,90.604 193.771,89.944 L193.771,39.261 C193.771,38.601 193.425,38.206 192.593,38.206 L185.459,38.206 C184.766,38.206 184.351,38.601 184.351,39.261 L184.351,60.247 Z M134.533,38.206 C133.84,38.206 133.424,38.601 133.424,39.261 L133.424,45.861 C133.424,46.52 133.84,46.917 134.533,46.917 L142.568,46.917 L142.568,89.944 C142.568,90.67 142.983,91.001 143.676,91.001 L150.88,91.001 C151.642,91.001 151.988,90.67 151.988,89.944 L151.988,46.917 L160.024,46.917 C160.786,46.917 161.132,46.52 161.132,45.861 L161.132,39.261 C161.132,38.601 160.786,38.206 160.024,38.206 L134.533,38.206 Z M115.962,82.289 L132.448,82.289 C133.211,82.289 133.557,82.685 133.557,83.345 L133.557,89.944 C133.557,90.67 133.211,91.001 132.448,91.001 L107.65,91.001 C106.958,91.001 106.542,90.67 106.542,89.944 L106.542,39.261 C106.542,38.601 106.958,38.206 107.65,38.206 L114.854,38.206 C115.616,38.206 115.962,38.601 115.962,39.261 L115.962,82.289 Z M88.165,72.786 L79.298,72.786 L83.732,49.754 L88.165,72.786 Z M100.287,91.001 C101.118,91.001 101.396,90.604 101.257,89.878 L89.758,39.129 C89.62,38.469 89.204,38.206 88.581,38.206 L78.952,38.206 C78.329,38.206 77.913,38.469 77.774,39.129 L66.276,89.878 C66.068,90.604 66.415,91.001 67.176,91.001 L74.588,91.001 C75.211,91.001 75.558,90.67 75.696,90.076 L77.567,80.441 L89.896,80.441 L91.836,90.076 C91.975,90.67 92.321,91.001 92.944,91.001 L100.287,91.001 Z M60.963,39.261 C60.963,38.601 60.687,38.206 59.855,38.206 L34.364,38.206 C33.741,38.206 33.325,38.601 33.325,39.261 L33.325,89.944 C33.325,90.604 33.741,91.001 34.364,91.001 L59.855,91.001 C60.687,91.001 60.963,90.604 60.963,89.944 L60.963,83.345 C60.963,82.619 60.687,82.289 59.855,82.289 L42.538,82.289 L42.538,68.958 L55.769,68.958 C56.461,68.958 56.876,68.562 56.876,67.836 L56.876,61.303 C56.876,60.577 56.461,60.181 55.769,60.181 L42.538,60.181 L42.538,46.982 L59.855,46.982 C60.687,46.982 60.963,46.52 60.963,45.861 L60.963,39.261 Z M18.287,60.247 L9.42,60.247 L9.42,39.261 C9.42,38.601 9.005,38.206 8.312,38.206 L1.178,38.206 C0.346,38.206 0,38.601 0,39.261 L0,89.944 C0,90.604 0.346,91.001 1.178,91.001 L8.312,91.001 C9.005,91.001 9.42,90.604 9.42,89.944 L9.42,68.958 L18.287,68.958 L18.287,89.944 C18.287,90.604 18.703,91.001 19.395,91.001 L26.53,91.001 C27.361,91.001 27.708,90.604 27.708,89.944 L27.708,39.261 C27.708,38.601 27.361,38.206 26.53,38.206 L19.395,38.206 C18.703,38.206 18.287,38.601 18.287,39.261 L18.287,60.247 L18.287,60.247 Z" id="Fill-3" fill="#4BC2D1" mask="url(#mask-2)"></path>
            <path d="M560.399,38.206 C553.957,38.206 550.424,41.504 550.424,47.708 L550.424,63.283 C550.424,64.537 551.048,65.329 552.295,65.724 L568.711,70.872 L568.711,79.649 C568.711,81.431 567.741,82.289 565.94,82.289 L562.615,82.289 C560.884,82.289 559.845,81.431 559.845,79.649 L559.845,74.568 C559.845,73.841 559.499,73.511 558.736,73.511 L551.532,73.511 C550.84,73.511 550.424,73.841 550.424,74.568 L550.424,81.497 C550.424,87.701 553.957,91.001 560.399,91.001 L568.157,91.001 C574.668,91.001 578.132,87.701 578.132,81.497 L578.132,66.252 C578.132,64.999 577.509,64.273 576.331,63.811 L559.845,58.664 L559.845,49.556 C559.845,47.84 560.884,46.917 562.615,46.917 L565.94,46.917 C567.811,46.917 568.711,47.84 568.711,49.556 L568.711,54.704 C568.711,55.364 569.127,55.759 569.819,55.759 L577.023,55.759 C577.785,55.759 578.132,55.364 578.132,54.704 L578.132,47.708 C578.132,41.504 574.668,38.206 568.157,38.206 L560.399,38.206 Z M525.821,64.603 L525.821,46.917 L532.679,46.917 C534.48,46.917 535.449,47.84 535.449,49.556 L535.449,61.962 C535.449,63.678 534.48,64.603 532.679,64.603 L525.821,64.603 Z M544.87,47.708 C544.87,41.504 541.406,38.206 534.896,38.206 L517.509,38.206 C516.816,38.206 516.4,38.601 516.4,39.261 L516.4,89.944 C516.4,90.604 516.816,91.001 517.509,91.001 L524.713,91.001 C525.405,91.001 525.821,90.604 525.821,89.944 L525.821,73.314 L530.601,73.314 L535.241,90.076 C535.38,90.67 535.727,91.001 536.419,91.001 L543.623,91.001 C544.385,91.001 544.801,90.604 544.593,89.812 L539.814,72.522 C543.138,71.136 544.87,68.232 544.87,63.811 L544.87,47.708 Z M510.846,39.261 C510.846,38.601 510.568,38.206 509.737,38.206 L484.246,38.206 C483.623,38.206 483.207,38.601 483.207,39.261 L483.207,89.944 C483.207,90.604 483.623,91.001 484.246,91.001 L509.737,91.001 C510.568,91.001 510.846,90.604 510.846,89.944 L510.846,83.345 C510.846,82.619 510.568,82.289 509.737,82.289 L492.42,82.289 L492.42,68.958 L505.65,68.958 C506.343,68.958 506.759,68.562 506.759,67.836 L506.759,61.303 C506.759,60.577 506.343,60.181 505.65,60.181 L492.42,60.181 L492.42,46.982 L509.737,46.982 C510.568,46.982 510.846,46.52 510.846,45.861 L510.846,39.261 Z M476.717,91.001 C477.825,91.001 478.241,90.34 477.756,89.482 L465.219,62.821 L476.994,39.789 C477.479,38.865 477.064,38.206 476.024,38.206 L468.751,38.206 C467.989,38.206 467.504,38.535 467.158,39.195 L456.49,59.983 L456.49,39.525 C456.49,38.667 456.006,38.206 455.106,38.206 L448.455,38.206 C447.555,38.206 447.07,38.667 447.07,39.525 L447.07,89.68 C447.07,90.538 447.555,91.001 448.455,91.001 L455.106,91.001 C456.006,91.001 456.49,90.538 456.49,89.68 L456.49,75.095 L459.054,70.41 L467.781,90.01 C468.059,90.67 468.543,91.001 469.374,91.001 L476.717,91.001 Z M422.467,64.603 L422.467,46.917 L429.324,46.917 C431.125,46.917 432.095,47.84 432.095,49.556 L432.095,61.962 C432.095,63.678 431.125,64.603 429.324,64.603 L422.467,64.603 Z M441.516,47.708 C441.516,41.504 438.052,38.206 431.541,38.206 L414.154,38.206 C413.462,38.206 413.046,38.601 413.046,39.261 L413.046,89.944 C413.046,90.604 413.462,91.001 414.154,91.001 L421.358,91.001 C422.051,91.001 422.467,90.604 422.467,89.944 L422.467,73.314 L427.246,73.314 L431.887,90.076 C432.025,90.67 432.372,91.001 433.065,91.001 L440.269,91.001 C441.03,91.001 441.446,90.604 441.238,89.812 L436.459,72.522 C439.783,71.136 441.516,68.232 441.516,63.811 L441.516,47.708 Z M391.718,82.487 C389.917,82.487 388.947,81.628 388.947,79.847 L388.947,49.358 C388.947,47.642 389.917,46.718 391.718,46.718 L395.735,46.718 C397.536,46.718 398.507,47.642 398.507,49.358 L398.507,79.847 C398.507,81.628 397.536,82.487 395.735,82.487 L391.718,82.487 Z M379.734,81.497 C379.734,87.701 383.198,91.001 389.709,91.001 L397.467,91.001 C403.979,91.001 407.442,87.701 407.442,81.497 L407.442,47.708 C407.442,41.504 403.979,38.206 397.467,38.206 L389.709,38.206 C383.198,38.206 379.734,41.504 379.734,47.708 L379.734,81.497 Z M366.623,38.206 C365.792,38.206 365.237,38.667 365.168,39.458 L362.328,70.344 L361.982,70.344 L355.193,39.393 C354.985,38.601 354.501,38.206 353.67,38.206 L349.514,38.206 C348.683,38.206 348.197,38.601 347.989,39.393 L341.132,70.344 L340.785,70.344 L338.084,39.458 C338.015,38.667 337.461,38.206 336.629,38.206 L330.049,38.206 C329.148,38.206 328.663,38.733 328.732,39.591 L334.413,89.747 C334.482,90.604 334.967,91.001 335.867,91.001 L342.794,91.001 C343.626,91.001 344.11,90.604 344.318,89.878 L351.592,59.983 L358.796,89.812 C359.003,90.604 359.488,91.001 360.319,91.001 L367.107,91.001 C368.008,91.001 368.493,90.604 368.563,89.747 L374.52,39.591 C374.589,38.733 374.104,38.206 373.203,38.206 L366.623,38.206 L366.623,38.206 Z" id="Fill-4" fill="#4BC2D1" mask="url(#mask-2)"></path>
        </g>
    </g>
</svg>