<svg xmlns="http://www.w3.org/2000/svg" xmlns:xlink="http://www.w3.org/1999/xlink" version="1.1" x="0px" y="0px" viewBox="0 0 1600 2000" style="enable-background:new 0 0 1600 1600;" xml:space="preserve" fill="#173248"><style type="text/css">
	.st0{fill:#FFFFFF;stroke:#000000;stroke-width:50;stroke-miterlimit:10;}
	.st1{fill:none;stroke:#000000;stroke-width:50;stroke-miterlimit:10;}
</style><polyline class="st1" points="497.9,382.5 497.9,1007.9 480.2,1329.7 342.4,1545.2 "/><circle class="st1" cx="497.9" cy="218" r="185.8"/><polyline class="st1" points="295.7,807.7 497.9,514.2 726.8,813 "/><polyline class="st1" points="497.9,1007.9 670.2,1141.7 698.2,1423.1 "/><polygon class="st1" points="251.1,779.1 339.9,805.8 322,865.5 426.9,897 366.1,1099.5 72.8,1011.5 134,807.5 233.6,837.4 "/><polyline class="st1" points="72.8,1557.8 622.1,1557.8 622.1,1425.8 790.1,1425.8 790.1,1311.8 973.1,1311.8 973.1,1194.8   1150.2,1194.8 1150.2,1063.9 1342.2,1063.9 1342.2,930.7 1551.2,930.7 "/></svg>