<?xml version="1.0" standalone="no"?>
<!DOCTYPE svg PUBLIC "-//W3C//DTD SVG 20010904//EN"
 "http://www.w3.org/TR/2001/REC-SVG-20010904/DTD/svg10.dtd">
<svg version="1.0" xmlns="http://www.w3.org/2000/svg"
 width="1024.000000pt" height="46.000000pt" viewBox="0 0 1024.000000 46.000000"
 preserveAspectRatio="xMidYMid meet">

<g transform="translate(0.000000,46.000000) scale(0.100000,-0.100000)"
fill="#f08136" stroke="none">
<path d="M880 336 c0 -16 26 -46 41 -46 14 0 11 27 -7 44 -19 20 -34 20 -34 2z"/>
<path d="M110 235 c0 -52 4 -95 8 -95 23 0 32 30 32 107 0 76 -2 83 -20 83
-19 0 -20 -7 -20 -95z"/>
<path d="M170 315 c0 -16 25 -29 73 -40 33 -7 57 -53 57 -110 0 -28 4 -35 20
-35 17 0 20 7 20 48 0 62 -26 113 -70 134 -44 23 -100 24 -100 3z"/>
<path d="M403 320 c-55 -22 -70 -118 -25 -163 29 -28 146 -39 136 -12 -8 21
-45 35 -92 35 -20 0 -44 5 -52 11 -12 8 -11 9 5 5 19 -5 21 -2 17 27 -5 42 11
55 73 59 43 3 50 6 53 26 3 20 0 22 -45 21 -26 0 -58 -4 -70 -9z"/>
<path d="M575 316 c-27 -12 -55 -51 -55 -77 0 -11 37 6 58 28 14 14 62 18 62
5 0 -17 -26 -32 -56 -32 -31 0 -64 -21 -64 -40 0 -5 11 -21 23 -36 20 -23 34
-28 85 -32 62 -4 76 4 48 27 -8 6 -33 16 -57 20 -24 5 -36 9 -27 10 55 3 98
52 98 111 0 29 -2 30 -42 30 -24 -1 -57 -7 -73 -14z"/>
<path d="M700 323 c1 -19 18 -32 57 -42 53 -15 73 -42 73 -103 0 -41 3 -48 20
-48 18 0 20 7 20 55 0 73 -19 108 -70 129 -42 17 -100 22 -100 9z"/>
<path d="M1073 310 c-18 -11 -33 -22 -33 -25 0 -3 25 -5 55 -5 52 0 55 1 55
25 0 32 -31 34 -77 5z"/>
<path d="M1204 320 c-33 -13 -54 -50 -54 -93 0 -71 75 -117 146 -90 13 5 6 9
-26 17 -82 20 -107 106 -38 130 65 23 107 -60 52 -103 l-27 -21 36 0 c42 0 57
19 57 75 0 71 -75 114 -146 85z"/>
<path d="M170 210 c0 -73 2 -80 20 -80 18 0 20 7 20 70 0 59 -3 71 -20 80 -19
10 -20 8 -20 -70z"/>
<path d="M700 210 c0 -79 0 -80 25 -80 24 0 25 2 25 68 0 64 -2 70 -25 80
l-25 12 0 -80z"/>
<path d="M883 239 c7 -59 23 -86 61 -99 49 -17 66 -13 66 15 0 21 -5 25 -28
25 -32 0 -52 16 -52 42 0 11 7 18 19 18 17 0 49 26 40 34 -2 2 -28 6 -58 8
l-53 5 5 -48z"/>
<path d="M1043 263 c-9 -3 -13 -27 -13 -71 0 -65 0 -66 19 -47 12 13 21 40 23
73 5 51 1 58 -29 45z"/>
</g>
</svg>
