<svg xmlns="http://www.w3.org/2000/svg" xmlns:xlink="http://www.w3.org/1999/xlink" version="1.1" x="0px" y="0px" viewBox="0 0 512 640" enable-background="new 0 0 512 512" xml:space="preserve" fill="#173248"><path d="M129.697,252.257c-6.407,0-11.621,5.213-11.621,11.62c0,6.408,5.214,11.622,11.621,11.622  c6.408,0,11.621-5.214,11.621-11.622C141.318,257.47,136.105,252.257,129.697,252.257z"/><path d="M298.602,271.738c0-64.86-52.579-117.442-117.44-117.442c-85.707,0-141.384,44.519-141.384,121.983  c0,93.45,65.212,135.622,65.212,135.622v63.615h142.452v-38.971l52.869-11.916v-60.601l28.628-18.567l-30.337-53.22V271.738z   M264.804,314.907h-30v-36.03h-11.259v36.03h-30v-36.03h-25.034c-6.033,15.558-21.151,26.622-38.813,26.622  c-22.95,0-41.621-18.672-41.621-41.622c0-22.949,18.671-41.62,41.621-41.62c17.662,0,32.779,11.063,38.813,26.62h96.294V314.907z"/><rect x="384.279" y="36.483" width="30" height="50.866"/><rect x="432.788" y="44.558" transform="matrix(0.9039 0.4277 -0.4277 0.9039 72.9524 -184.7858)" width="29.999" height="50.865"/><rect x="325.338" y="54.99" transform="matrix(0.4277 0.9039 -0.9039 0.4277 264.0201 -277.0158)" width="50.865" height="30"/><path d="M399.283,113.181c-0.002,0-0.003,0-0.004,0c-0.002,0-0.003,0-0.004,0c-32.997,0.004-59.745,26.754-59.745,59.751  c0,5.912,1.601,11.684,3.401,17.011c3.962,11.725,26.071,37.898,26.071,37.898l0.054,14.4h30.22h0.005h30.221l0.053-14.4  c0,0,22.109-26.174,26.072-37.898c1.801-5.327,3.4-11.099,3.4-17.011C459.027,139.935,432.28,113.185,399.283,113.181z"/><rect x="369.057" y="262.077" width="60.445" height="30"/></svg>