<svg xmlns="http://www.w3.org/2000/svg" data-name="Layer 1" viewBox="0 0 137.61 172.01250000000002" x="0px" y="0px" fill="#173248"><defs><style>.\37 f14ad7b-0214-45e9-a2bc-82340d8144bc{fill:#231f20;}</style></defs><title>artificial-intelligence</title><path class="7f14ad7b-0214-45e9-a2bc-82340d8144bc" d="M121.2,66.28h-.06a52.39,52.39,0,0,0-49.8-49.8s0,0,0-.06a2.53,2.53,0,0,0-5.06,0s0,0,0,.06a52.39,52.39,0,0,0-49.8,49.8h-.06a2.53,2.53,0,0,0,0,5.06h.06a52.39,52.39,0,0,0,49.8,49.8s0,0,0,.06a2.53,2.53,0,1,0,5.06,0s0,0,0-.06a52.39,52.39,0,0,0,49.8-49.8h.06a2.53,2.53,0,1,0,0-5.06ZM70.6,119.41a2.53,2.53,0,0,0-3.58,0L18.21,70.6a2.53,2.53,0,0,0,0-3.58L67,18.21a2.53,2.53,0,0,0,3.58,0L119.41,67a2.53,2.53,0,0,0,0,3.58Z"/><path d="M68.81,50.18c-15.47,0-28,18.62-28,18.62s12.54,18.62,28,18.62,28-18.62,28-18.62S84.28,50.18,68.81,50.18Zm-1.2,2.58v6.08a6.12,6.12,0,0,0-2.76.66l-2.71-5.43A12.17,12.17,0,0,1,67.61,52.76Zm2.61,32.09V78.77A6.12,6.12,0,0,0,73,78.12l2.71,5.43A12.16,12.16,0,0,1,70.21,84.85Zm-1.41-6.73a9.31,9.31,0,1,1,9.57-9.31A9.45,9.45,0,0,1,68.81,78.12Z"/></svg>