<svg xmlns="http://www.w3.org/2000/svg" xmlns:xlink="http://www.w3.org/1999/xlink" version="1.1" x="0px" y="0px" viewBox="197.3 -92 60 50" enable-background="new 197.3 -101 60 60" xml:space="preserve" fill="#173248"><g><circle cx="206.6" cy="-86.2" r="1.6"/><circle cx="212.1" cy="-86.2" r="1.6"/><circle cx="217.6" cy="-86.2" r="1.6"/><path d="M200.2-92.5v42.9h54.3v-42.9H200.2z M252-52h-49.3V-80H252V-52z M252-82.5h-49.3V-90H252V-82.5z"/><polygon points="222.5,-63.7 217.1,-66.5 222.5,-69.3 221.7,-71.1 214.4,-67.2 214.4,-65.8 221.7,-62  "/><polygon points="231.2,-73.7 229,-73.7 223.7,-59.9 226,-59.9  "/><polygon points="233.3,-62 240.6,-65.8 240.6,-67.2 233.3,-71.1 232.4,-69.3 237.8,-66.5 232.4,-63.7  "/></g></svg>